# xmcd CD database file
#
# Track frame offsets:
#	150
#	16290
#	31440
#	46691
#	61382
#	76271
#	89313
#	101905
#	117083
#	127068
#	141566
#	158145
#	171891
#	186958
#	198060
#	212446
#
# Disc length: 3045 seconds
#
# Revision: 0
# Processed by: cddbd v1.5.1PL0 Copyright (c) Steve Scherf et al.
# Submitted via: CDex 1.51
#
DISCID=d70be310
DTITLE=GlennMiller - From Hollywood to the US Air Force
DYEAR=2004
DGENRE=Big Band
TTITLE0=In the Mood
TTITLE1=Moonlight serenade
TTITLE2=Chattanooga Choo Choo
TTITLE3=Pennsylvania 6-5000
TTITLE4=American patrol 1940
TTITLE5=Blueberry hill
TTITLE6=Running wild
TTITLE7=Star dust
TTITLE8=Hallelujah
TTITLE9=My blue heaven
TTITLE10=I got rhythm
TTITLE11=Rhapsody in blue
TTITLE12=Perfidia 1941
TTITLE13=Mission to Moscow
TTITLE14=Flying home
TTITLE15=Saint Louis Blues March
EXTD=YEAR: 2004
EXTT0=
EXTT1=
EXTT2=
EXTT3=
EXTT4=
EXTT5=
EXTT6=
EXTT7=
EXTT8=
EXTT9=
EXTT10=
EXTT11=
EXTT12=
EXTT13=
EXTT14=
EXTT15=
PLAYORDER=
